<svg xmlns="http://www.w3.org/2000/svg" width="360" height="360" viewBox="0 0 354 354"><rect width="100%" height="100%" fill="white"/><path d="M18 18h42v6H18zM72 18h12v6H72zM96 18h6v6H96zM114 18h12v6H114zM132 18h12v6H132zM150 18h12v6H150zM168 18h6v6H168zM180 18h6v6H180zM204 18h6v6H204zM246 18h30v6H246zM294 18h42v6H294zM18 24h6v6H18zM54 24h6v6H54zM72 24h6v6H72zM90 24h12v6H90zM108 24h6v6H108zM132 24h12v6H132zM156 24h12v6H156zM174 24h6v6H174zM204 24h18v6H204zM228 24h6v6H228zM240 24h6v6H240zM252 24h30v6H252zM294 24h6v6H294zM330 24h6v6H330zM18 30h6v6H18zM30 30h18v6H30zM54 30h6v6H54zM72 30h18v6H72zM96 30h12v6H96zM114 30h12v6H114zM144 30h12v6H144zM168 30h12v6H168zM192 30h12v6H192zM222 30h24v6H222zM252 30h6v6H252zM264 30h6v6H264zM276 30h6v6H276zM294 30h6v6H294zM306 30h18v6H306zM330 30h6v6H330zM18 36h6v6H18zM30 36h18v6H30zM54 36h6v6H54zM78 36h6v6H78zM90 36h12v6H90zM114 36h24v6H114zM144 36h30v6H144zM186 36h6v6H186zM204 36h24v6H204zM234 36h6v6H234zM246 36h6v6H246zM264 36h12v6H264zM282 36h6v6H282zM294 36h6v6H294zM306 36h18v6H306zM330 36h6v6H330zM18 42h6v6H18zM30 42h18v6H30zM54 42h6v6H54zM72 42h18v6H72zM102 42h6v6H102zM120 42h12v6H120zM138 42h6v6H138zM162 42h30v6H162zM198 42h6v6H198zM240 42h24v6H240zM270 42h6v6H270zM294 42h6v6H294zM306 42h18v6H306zM330 42h6v6H330zM18 48h6v6H18zM54 48h6v6H54zM66 48h6v6H66zM78 48h6v6H78zM90 48h6v6H90zM120 48h6v6H120zM144 48h12v6H144zM162 48h6v6H162zM186 48h24v6H186zM222 48h24v6H222zM252 48h24v6H252zM294 48h6v6H294zM330 48h6v6H330zM18 54h42v6H18zM66 54h6v6H66zM78 54h6v6H78zM90 54h6v6H90zM102 54h6v6H102zM114 54h6v6H114zM126 54h6v6H126zM138 54h6v6H138zM150 54h6v6H150zM162 54h6v6H162zM174 54h6v6H174zM186 54h6v6H186zM198 54h6v6H198zM210 54h6v6H210zM222 54h6v6H222zM234 54h6v6H234zM246 54h6v6H246zM258 54h6v6H258zM270 54h6v6H270zM282 54h6v6H282zM294 54h42v6H294zM72 60h18v6H72zM96 60h6v6H96zM108 60h6v6H108zM138 60h12v6H138zM156 60h12v6H156zM186 60h24v6H186zM216 60h6v6H216zM228 60h6v6H228zM240 60h30v6H240zM18 66h6v6H18zM36 66h6v6H36zM48 66h12v6H48zM66 66h6v6H66zM78 66h6v6H78zM90 66h12v6H90zM108 66h6v6H108zM144 66h12v6H144zM162 66h42v6H162zM222 66h18v6H222zM258 66h12v6H258zM282 66h12v6H282zM300 66h6v6H300zM18 72h18v6H18zM66 72h12v6H66zM84 72h18v6H84zM114 72h18v6H114zM138 72h12v6H138zM156 72h6v6H156zM168 72h6v6H168zM198 72h6v6H198zM216 72h12v6H216zM240 72h12v6H240zM264 72h6v6H264zM294 72h12v6H294zM312 72h18v6H312zM24 78h48v6H24zM78 78h18v6H78zM120 78h6v6H120zM132 78h6v6H132zM150 78h6v6H150zM162 78h12v6H162zM180 78h12v6H180zM204 78h12v6H204zM234 78h6v6H234zM252 78h12v6H252zM270 78h6v6H270zM282 78h12v6H282zM300 78h24v6H300zM18 84h12v6H18zM42 84h6v6H42zM66 84h12v6H66zM84 84h12v6H84zM108 84h12v6H108zM126 84h12v6H126zM144 84h6v6H144zM156 84h6v6H156zM186 84h18v6H186zM222 84h24v6H222zM252 84h6v6H252zM264 84h36v6H264zM312 84h6v6H312zM324 84h6v6H324zM36 90h12v6H36zM54 90h6v6H54zM66 90h18v6H66zM90 90h6v6H90zM102 90h24v6H102zM138 90h6v6H138zM174 90h18v6H174zM234 90h12v6H234zM264 90h6v6H264zM282 90h12v6H282zM306 90h6v6H306zM318 90h6v6H318zM330 90h6v6H330zM42 96h12v6H42zM72 96h12v6H72zM90 96h6v6H90zM102 96h6v6H102zM120 96h6v6H120zM132 96h18v6H132zM156 96h6v6H156zM174 96h18v6H174zM198 96h12v6H198zM216 96h18v6H216zM240 96h12v6H240zM288 96h6v6H288zM318 96h18v6H318zM18 102h18v6H18zM48 102h12v6H48zM78 102h12v6H78zM96 102h12v6H96zM126 102h12v6H126zM162 102h18v6H162zM186 102h30v6H186zM222 102h6v6H222zM234 102h6v6H234zM264 102h12v6H264zM294 102h18v6H294zM324 102h12v6H324zM18 108h6v6H18zM30 108h6v6H30zM42 108h6v6H42zM66 108h6v6H66zM78 108h12v6H78zM108 108h24v6H108zM138 108h12v6H138zM156 108h12v6H156zM180 108h6v6H180zM192 108h18v6H192zM216 108h6v6H216zM228 108h6v6H228zM240 108h6v6H240zM264 108h6v6H264zM276 108h12v6H276zM300 108h12v6H300zM318 108h12v6H318zM30 114h6v6H30zM54 114h24v6H54zM90 114h6v6H90zM108 114h6v6H108zM120 114h12v6H120zM144 114h6v6H144zM156 114h6v6H156zM168 114h24v6H168zM198 114h24v6H198zM234 114h12v6H234zM258 114h12v6H258zM276 114h6v6H276zM294 114h36v6H294zM24 120h6v6H24zM42 120h12v6H42zM60 120h36v6H60zM108 120h12v6H108zM126 120h24v6H126zM156 120h6v6H156zM174 120h6v6H174zM186 120h6v6H186zM204 120h18v6H204zM246 120h18v6H246zM270 120h18v6H270zM300 120h6v6H300zM324 120h12v6H324zM30 126h6v6H30zM54 126h12v6H54zM72 126h6v6H72zM84 126h6v6H84zM102 126h18v6H102zM150 126h18v6H150zM174 126h6v6H174zM192 126h6v6H192zM204 126h24v6H204zM234 126h6v6H234zM252 126h12v6H252zM294 126h6v6H294zM318 126h6v6H318zM330 126h6v6H330zM18 132h6v6H18zM30 132h12v6H30zM48 132h6v6H48zM66 132h6v6H66zM96 132h6v6H96zM108 132h18v6H108zM150 132h18v6H150zM174 132h6v6H174zM192 132h6v6H192zM210 132h6v6H210zM222 132h42v6H222zM270 132h6v6H270zM282 132h6v6H282zM294 132h18v6H294zM324 132h12v6H324zM18 138h6v6H18zM36 138h12v6H36zM54 138h18v6H54zM78 138h6v6H78zM96 138h6v6H96zM108 138h6v6H108zM126 138h6v6H126zM138 138h6v6H138zM150 138h18v6H150zM174 138h12v6H174zM204 138h36v6H204zM246 138h12v6H246zM264 138h30v6H264zM306 138h6v6H306zM318 138h6v6H318zM330 138h6v6H330zM18 144h18v6H18zM72 144h12v6H72zM90 144h6v6H90zM102 144h12v6H102zM120 144h6v6H120zM132 144h12v6H132zM168 144h12v6H168zM204 144h6v6H204zM216 144h12v6H216zM246 144h24v6H246zM300 144h6v6H300zM318 144h12v6H318zM18 150h6v6H18zM36 150h6v6H36zM54 150h6v6H54zM66 150h6v6H66zM78 150h6v6H78zM90 150h6v6H90zM114 150h6v6H114zM132 150h6v6H132zM144 150h24v6H144zM174 150h6v6H174zM198 150h6v6H198zM210 150h12v6H210zM228 150h36v6H228zM276 150h12v6H276zM294 150h6v6H294zM306 150h12v6H306zM324 150h6v6H324zM18 156h6v6H18zM30 156h6v6H30zM48 156h6v6H48zM72 156h24v6H72zM108 156h6v6H108zM126 156h6v6H126zM138 156h12v6H138zM168 156h12v6H168zM204 156h6v6H204zM216 156h6v6H216zM228 156h6v6H228zM240 156h18v6H240zM270 156h24v6H270zM324 156h6v6H324zM18 162h66v6H18zM96 162h6v6H96zM114 162h6v6H114zM132 162h18v6H132zM156 162h42v6H156zM216 162h12v6H216zM234 162h12v6H234zM252 162h12v6H252zM282 162h30v6H282zM318 162h18v6H318zM18 168h6v6H18zM30 168h18v6H30zM66 168h18v6H66zM90 168h24v6H90zM120 168h6v6H120zM156 168h12v6H156zM186 168h6v6H186zM204 168h18v6H204zM246 168h24v6H246zM282 168h6v6H282zM306 168h6v6H306zM324 168h6v6H324zM18 174h6v6H18zM30 174h18v6H30zM54 174h6v6H54zM66 174h12v6H66zM84 174h12v6H84zM102 174h6v6H102zM120 174h6v6H120zM156 174h12v6H156zM174 174h6v6H174zM186 174h6v6H186zM210 174h30v6H210zM246 174h6v6H246zM258 174h6v6H258zM282 174h6v6H282zM294 174h6v6H294zM306 174h18v6H306zM330 174h6v6H330zM30 180h6v6H30zM42 180h6v6H42zM66 180h6v6H66zM84 180h18v6H84zM108 180h6v6H108zM126 180h6v6H126zM144 180h24v6H144zM186 180h6v6H186zM198 180h12v6H198zM216 180h24v6H216zM246 180h18v6H246zM276 180h12v6H276zM306 180h12v6H306zM324 180h6v6H324zM18 186h6v6H18zM42 186h30v6H42zM90 186h6v6H90zM108 186h36v6H108zM162 186h30v6H162zM198 186h6v6H198zM222 186h30v6H222zM264 186h6v6H264zM276 186h42v6H276zM324 186h12v6H324zM18 192h6v6H18zM30 192h12v6H30zM48 192h6v6H48zM60 192h24v6H60zM102 192h18v6H102zM132 192h18v6H132zM156 192h6v6H156zM168 192h18v6H168zM198 192h12v6H198zM216 192h6v6H216zM228 192h6v6H228zM240 192h18v6H240zM276 192h6v6H276zM288 192h6v6H288zM300 192h12v6H300zM324 192h6v6H324zM24 198h6v6H24zM36 198h6v6H36zM54 198h6v6H54zM66 198h6v6H66zM84 198h18v6H84zM108 198h18v6H108zM132 198h12v6H132zM156 198h12v6H156zM174 198h6v6H174zM186 198h12v6H186zM204 198h6v6H204zM234 198h24v6H234zM282 198h6v6H282zM294 198h6v6H294zM306 198h6v6H306zM318 198h6v6H318zM330 198h6v6H330zM42 204h6v6H42zM60 204h12v6H60zM78 204h6v6H78zM108 204h6v6H108zM150 204h12v6H150zM168 204h6v6H168zM186 204h12v6H186zM222 204h12v6H222zM252 204h6v6H252zM264 204h6v6H264zM276 204h18v6H276zM300 204h18v6H300zM330 204h6v6H330zM18 210h6v6H18zM30 210h6v6H30zM42 210h18v6H42zM66 210h6v6H66zM78 210h6v6H78zM114 210h6v6H114zM126 210h24v6H126zM156 210h6v6H156zM180 210h6v6H180zM198 210h6v6H198zM216 210h18v6H216zM240 210h12v6H240zM264 210h12v6H264zM294 210h6v6H294zM318 210h18v6H318zM24 216h6v6H24zM36 216h6v6H36zM84 216h12v6H84zM126 216h6v6H126zM138 216h6v6H138zM156 216h12v6H156zM192 216h6v6H192zM204 216h12v6H204zM222 216h24v6H222zM258 216h12v6H258zM276 216h18v6H276zM300 216h6v6H300zM318 216h6v6H318zM330 216h6v6H330zM24 222h6v6H24zM36 222h24v6H36zM66 222h6v6H66zM90 222h24v6H90zM120 222h6v6H120zM132 222h6v6H132zM144 222h6v6H144zM174 222h12v6H174zM192 222h12v6H192zM210 222h6v6H210zM222 222h18v6H222zM264 222h18v6H264zM294 222h6v6H294zM312 222h6v6H312zM330 222h6v6H330zM30 228h24v6H30zM60 228h6v6H60zM72 228h12v6H72zM102 228h12v6H102zM126 228h6v6H126zM138 228h18v6H138zM180 228h6v6H180zM192 228h6v6H192zM204 228h6v6H204zM222 228h6v6H222zM246 228h18v6H246zM270 228h30v6H270zM306 228h12v6H306zM324 228h6v6H324zM24 234h6v6H24zM36 234h6v6H36zM48 234h12v6H48zM78 234h6v6H78zM96 234h12v6H96zM114 234h12v6H114zM132 234h12v6H132zM150 234h18v6H150zM174 234h6v6H174zM186 234h6v6H186zM198 234h6v6H198zM228 234h24v6H228zM264 234h6v6H264zM282 234h6v6H282zM300 234h12v6H300zM318 234h6v6H318zM330 234h6v6H330zM30 240h6v6H30zM42 240h12v6H42zM60 240h6v6H60zM72 240h6v6H72zM84 240h24v6H84zM120 240h48v6H120zM174 240h6v6H174zM186 240h12v6H186zM204 240h12v6H204zM234 240h12v6H234zM264 240h12v6H264zM288 240h24v6H288zM330 240h6v6H330zM18 246h12v6H18zM48 246h12v6H48zM90 246h6v6H90zM120 246h6v6H120zM132 246h6v6H132zM144 246h6v6H144zM162 246h6v6H162zM180 246h24v6H180zM222 246h12v6H222zM246 246h30v6H246zM288 246h6v6H288zM300 246h12v6H300zM330 246h6v6H330zM18 252h12v6H18zM42 252h6v6H42zM66 252h30v6H66zM102 252h30v6H102zM138 252h18v6H138zM162 252h12v6H162zM210 252h6v6H210zM228 252h18v6H228zM252 252h6v6H252zM264 252h6v6H264zM282 252h6v6H282zM300 252h12v6H300zM324 252h6v6H324zM18 258h18v6H18zM54 258h12v6H54zM72 258h6v6H72zM102 258h18v6H102zM126 258h6v6H126zM144 258h12v6H144zM162 258h30v6H162zM204 258h24v6H204zM246 258h6v6H246zM270 258h12v6H270zM288 258h6v6H288zM312 258h18v6H312zM18 264h12v6H18zM36 264h6v6H36zM48 264h6v6H48zM66 264h6v6H66zM96 264h12v6H96zM126 264h6v6H126zM144 264h6v6H144zM156 264h6v6H156zM174 264h18v6H174zM198 264h12v6H198zM216 264h6v6H216zM234 264h24v6H234zM276 264h18v6H276zM300 264h6v6H300zM312 264h6v6H312zM324 264h6v6H324zM18 270h12v6H18zM36 270h42v6H36zM84 270h36v6H84zM150 270h18v6H150zM198 270h6v6H198zM228 270h24v6H228zM258 270h6v6H258zM294 270h6v6H294zM306 270h30v6H306zM24 276h12v6H24zM60 276h12v6H60zM114 276h12v6H114zM138 276h6v6H138zM156 276h18v6H156zM192 276h6v6H192zM210 276h24v6H210zM240 276h6v6H240zM252 276h6v6H252zM288 276h12v6H288zM312 276h24v6H312zM36 282h6v6H36zM54 282h6v6H54zM72 282h6v6H72zM108 282h6v6H108zM120 282h12v6H120zM138 282h6v6H138zM150 282h42v6H150zM198 282h6v6H198zM210 282h12v6H210zM240 282h12v6H240zM258 282h6v6H258zM270 282h48v6H270zM330 282h6v6H330zM66 288h18v6H66zM102 288h18v6H102zM132 288h6v6H132zM150 288h18v6H150zM186 288h6v6H186zM198 288h6v6H198zM210 288h54v6H210zM282 288h6v6H282zM306 288h6v6H306zM324 288h6v6H324zM18 294h42v6H18zM72 294h6v6H72zM84 294h6v6H84zM102 294h30v6H102zM162 294h6v6H162zM174 294h6v6H174zM186 294h24v6H186zM216 294h6v6H216zM228 294h6v6H228zM246 294h12v6H246zM264 294h24v6H264zM294 294h6v6H294zM306 294h18v6H306zM18 300h6v6H18zM54 300h6v6H54zM66 300h6v6H66zM78 300h12v6H78zM102 300h12v6H102zM120 300h18v6H120zM156 300h12v6H156zM186 300h18v6H186zM210 300h12v6H210zM234 300h12v6H234zM258 300h6v6H258zM276 300h12v6H276zM306 300h18v6H306zM330 300h6v6H330zM18 306h6v6H18zM30 306h18v6H30zM54 306h6v6H54zM78 306h36v6H78zM132 306h6v6H132zM150 306h42v6H150zM210 306h18v6H210zM234 306h6v6H234zM246 306h6v6H246zM264 306h12v6H264zM282 306h30v6H282zM318 306h18v6H318zM18 312h6v6H18zM30 312h18v6H30zM54 312h6v6H54zM66 312h6v6H66zM84 312h12v6H84zM102 312h24v6H102zM132 312h6v6H132zM150 312h30v6H150zM186 312h6v6H186zM204 312h6v6H204zM246 312h30v6H246zM288 312h6v6H288zM306 312h6v6H306zM318 312h18v6H318zM18 318h6v6H18zM30 318h18v6H30zM54 318h6v6H54zM78 318h6v6H78zM90 318h6v6H90zM102 318h24v6H102zM132 318h6v6H132zM150 318h6v6H150zM168 318h6v6H168zM180 318h12v6H180zM222 318h18v6H222zM252 318h6v6H252zM264 318h6v6H264zM276 318h6v6H276zM288 318h18v6H288zM312 318h12v6H312zM330 318h6v6H330zM18 324h6v6H18zM54 324h6v6H54zM72 324h6v6H72zM84 324h12v6H84zM108 324h6v6H108zM120 324h12v6H120zM156 324h6v6H156zM174 324h12v6H174zM198 324h18v6H198zM228 324h12v6H228zM246 324h12v6H246zM264 324h18v6H264zM300 324h6v6H300zM18 330h42v6H18zM66 330h24v6H66zM102 330h6v6H102zM114 330h12v6H114zM144 330h6v6H144zM162 330h6v6H162zM180 330h12v6H180zM216 330h36v6H216zM270 330h6v6H270zM282 330h18v6H282zM312 330h12v6H312z" fill="black"/></svg>