<svg xmlns="http://www.w3.org/2000/svg" width="1600" height="900" viewBox="0 0 1600 900"><defs><linearGradient id="bg" x1="0" y1="0" x2="1" y2="1"><stop stop-color="#050505"/><stop offset="1" stop-color="#14110a"/></linearGradient><linearGradient id="gold" x1="0" y1="0" x2="1" y2="0"><stop stop-color="#8f6a24"/><stop offset=".5" stop-color="#f4d78b"/><stop offset="1" stop-color="#8f6a24"/></linearGradient></defs><rect width="1600" height="900" rx="38" fill="url(#bg)"/><rect x="55" y="55" width="1490" height="790" rx="26" fill="#080808" stroke="url(#gold)" stroke-width="2"/><text x="110" y="145" fill="#f4d78b" font-family="Arial,sans-serif" font-size="25" letter-spacing="8">IRENX PRIME AI</text><text x="110" y="195" fill="#777" font-family="Arial,sans-serif" font-size="18" letter-spacing="3">INTELLIGENCE • ROUTING • EDGE</text><line x1="110" y1="235" x2="1490" y2="235" stroke="#292929"/><rect x="110" y="285" width="880" height="455" rx="18" fill="#0d0d0d" stroke="#292929"/><text x="145" y="340" fill="#666" font-family="monospace" font-size="18">LIVE TERMINAL / IRENX CORE</text><text x="145" y="400" fill="#f4d78b" font-family="monospace" font-size="22">› route.task("market-intelligence")</text><text x="145" y="450" fill="#d8d8d8" font-family="monospace" font-size="20">REGIME       : TRENDING</text><text x="145" y="490" fill="#d8d8d8" font-family="monospace" font-size="20">LIQUIDITY    : CONFIRMED</text><text x="145" y="530" fill="#d8d8d8" font-family="monospace" font-size="20">REFLEXIVITY  : ALIGNED</text><text x="145" y="570" fill="#d8d8d8" font-family="monospace" font-size="20">ROUTE        : OMNIROUTE</text><text x="145" y="610" fill="#f4d78b" font-family="monospace" font-size="20">STATUS       : READY</text><text x="145" y="680" fill="#555" font-family="monospace" font-size="16">fail-fast CI • regression gates • controlled edge</text><rect x="1030" y="285" width="460" height="455" rx="18" fill="#0d0d0d" stroke="#292929"/><text x="1070" y="345" fill="#666" font-family="Arial,sans-serif" font-size="17" letter-spacing="4">CORE STATUS</text><circle cx="1090" cy="405" r="8" fill="#f4d78b"/><text x="1115" y="412" fill="#ddd" font-family="Arial,sans-serif" font-size="20">OmniRoute</text><circle cx="1090" cy="455" r="8" fill="#f4d78b"/><text x="1115" y="462" fill="#ddd" font-family="Arial,sans-serif" font-size="20">AI Gateway</text><circle cx="1090" cy="505" r="8" fill="#f4d78b"/><text x="1115" y="512" fill="#ddd" font-family="Arial,sans-serif" font-size="20">Rust / WASM Canary</text><circle cx="1090" cy="555" r="8" fill="#f4d78b"/><text x="1115" y="562" fill="#ddd" font-family="Arial,sans-serif" font-size="20">Dify Bridge</text><line x1="1070" y1="615" x2="1450" y2="615" stroke="#292929"/><text x="1070" y="665" fill="#f4d78b" font-family="Arial,sans-serif" font-size="34">PRECISION</text><text x="1070" y="700" fill="#777" font-family="Arial,sans-serif" font-size="16" letter-spacing="2">SELF-HOSTED • OPEN • CONTROLLED</text></svg>