<svg xmlns="http://www.w3.org/2000/svg" width="1600" height="760" viewBox="0 0 1600 760"><defs><linearGradient id="bg" x1="0" y1="0" x2="1" y2="1"><stop stop-color="#050505"/><stop offset="1" stop-color="#12100b"/></linearGradient><linearGradient id="gold" x1="0" y1="0" x2="1" y2="0"><stop stop-color="#8f6a24"/><stop offset=".5" stop-color="#f4d78b"/><stop offset="1" stop-color="#8f6a24"/></linearGradient></defs><rect width="1600" height="760" rx="36" fill="url(#bg)"/><text x="100" y="100" fill="#f4d78b" font-family="Arial,sans-serif" font-size="26" letter-spacing="7">IRENX / ARCHITECTURE</text><text x="100" y="140" fill="#666" font-family="Arial,sans-serif" font-size="16" letter-spacing="3">A SIMPLE PATH FROM REQUEST TO INTELLIGENCE</text><g font-family="Arial,sans-serif" text-anchor="middle"><rect x="110" y="245" width="250" height="150" rx="20" fill="#0b0b0b" stroke="#514321"/><text x="235" y="300" fill="#f4d78b" font-size="24">CLIENT</text><text x="235" y="340" fill="#777" font-size="16">Web / Copilot / API</text><rect x="440" y="245" width="250" height="150" rx="20" fill="#0b0b0b" stroke="#514321"/><text x="565" y="300" fill="#f4d78b" font-size="24">GATEWAY</text><text x="565" y="340" fill="#777" font-size="16">OpenAI-compatible API</text><rect x="770" y="245" width="250" height="150" rx="20" fill="#0b0b0b" stroke="#514321"/><text x="895" y="300" fill="#f4d78b" font-size="24">OMNIROUTE</text><text x="895" y="340" fill="#777" font-size="16">Task-aware routing</text><rect x="1100" y="245" width="250" height="150" rx="20" fill="#0b0b0b" stroke="#514321"/><text x="1225" y="300" fill="#f4d78b" font-size="24">PROVIDERS</text><text x="1225" y="340" fill="#777" font-size="16">GPT / Claude / Gemini</text><g stroke="url(#gold)" stroke-width="3" fill="none"><path d="M360 320h80"/><path d="M690 320h80"/><path d="M1020 320h80"/></g><g fill="#f4d78b"><path d="M430 312l12 8-12 8z"/><path d="M760 312l12 8-12 8z"/><path d="M1090 312l12 8-12 8z"/></g><rect x="440" y="505" width="720" height="110" rx="20" fill="#0b0b0b" stroke="#292929"/><text x="800" y="550" fill="#f4d78b" font-family="Arial,sans-serif" font-size="22" text-anchor="middle">REGRESSION GATE</text><text x="800" y="585" fill="#777" font-family="monospace" font-size="16" text-anchor="middle">FMT → CLIPPY → TEST → WASM → DRY-RUN → MERGE</text></g></svg>